<?xml version="1.0" standalone="no"?>
<!DOCTYPE svg PUBLIC "-//W3C//DTD SVG 20010904//EN"
 "http://www.w3.org/TR/2001/REC-SVG-20010904/DTD/svg10.dtd">
<svg version="1.0" xmlns="http://www.w3.org/2000/svg"
 width="530.000000pt" height="530.000000pt" viewBox="0 0 530.000000 530.000000"
 preserveAspectRatio="xMidYMid meet">
<metadata>
Created by potrace 1.11, written by Peter Selinger 2001-2013
</metadata>
<g transform="translate(0.000000,530.000000) scale(0.100000,-0.100000)"
fill="#000000" stroke="none">
<path d="M2479 4896 c-2 -2 -31 -7 -64 -10 -138 -15 -185 -24 -335 -62 -74
-19 -144 -38 -155 -43 -11 -5 -63 -26 -115 -46 -610 -243 -1096 -764 -1301
-1398 -31 -95 -76 -289 -84 -360 -3 -25 -8 -56 -11 -68 -13 -55 -11 -427 3
-534 68 -524 289 -972 659 -1337 343 -337 777 -554 1247 -623 17 -2 52 -7 77
-11 74 -10 410 -13 475 -4 33 5 83 11 110 15 28 3 68 10 90 15 22 5 51 11 65
13 81 15 232 61 330 99 435 171 808 472 1064 858 111 168 197 343 260 530 30
91 72 258 81 320 3 25 8 52 10 60 27 97 26 551 -1 684 -2 12 -6 35 -9 51 -5
28 -10 52 -36 163 -12 50 -44 150 -79 247 -38 106 -149 320 -227 437 -41 62
-78 115 -82 118 -4 3 -26 30 -49 60 -67 86 -228 245 -332 329 -275 221 -580
369 -923 446 -60 14 -137 28 -171 31 -33 3 -65 9 -70 12 -10 6 -421 13 -427 8z"/>
</g>
</svg>
