<svg id="Layer_1" data-name="Layer 1" xmlns="http://www.w3.org/2000/svg" viewBox="0 0 1715.76 996.88"><defs><style>.cls-1{fill:none;stroke:#8c8c8c;stroke-miterlimit:10;stroke-width:2px;}</style></defs><title>infinityngrey</title><g id="Layer_1-2" data-name="Layer 1-2"><path id="SVGID" class="cls-1" d="M1344.3.5c-131.68.66-244.29,89.61-330,210.29l150.65-100h.23c30.63-22.74,65-38.76,105.15-45.49,168.74-27.61,330.75,130.91,338,358.15,3.48,102.84-25.3,203.57-78.92,273.2C1458.33,790.15,1352,822,1259,770.89c-84.49-46.43-163-142.06-229.57-220.75-30.18-35.51-73.12-85.88-107-125.81.23-.23.23-.46.48-.69l-54.56-65c-3-3.48-6.27-7.19-9.52-11.13l-1.38-1.63c-38.3-44.34-96.57-111.65-121-139C632.93,90.32,528-6.92,384.32,1,327.45,4,271.53,22.36,221.15,54.6c-50.6,32.05-95.4,78.23-130.68,133.72-71,110.45-102.83,260.62-85.19,398.5,8.14,68.93,27.4,135.1,56.18,192.42C123.2,903,227.88,983.26,340.46,994,479.72,1007.41,599,921.53,690,799.21L570.25,868.38l-.23.23c-35.76,31.57-76.13,54.07-125.58,62C275.69,958.21,113.68,799.9,106.26,572.43c-3.25-102.82,25.53-203.57,79.15-273,71-93.77,177.32-125.58,270.41-74.52,84.48,46.43,163,142.06,229.57,220.75,19,22.51,43.17,50.83,67.08,78.92l39.68,47.12,64.76,76.83,7.43,9.51c38.07,43.88,91,105.15,114,130.93,103.52,116.51,208.2,213.77,351.9,205.89,56.86-3,112.79-21.38,163.41-53.64,50.36-32,95.38-78.21,130.43-133.7,71.27-110.47,103-260.41,85.42-398.53-8.11-68.94-27.38-135.09-56.16-192.42-61.75-123.74-166.44-204-279-214.72Q1360.51.57,1347,.5Z" transform="translate(0.5 0.5)"/></g></svg>