<svg xmlns="http://www.w3.org/2000/svg" xmlns:xlink="http://www.w3.org/1999/xlink" viewBox="0 0 105.95 61.78"><defs><style>.cls-1{fill:url(#linear-gradient);}.cls-2{clip-path:url(#clip-path);}.cls-3{fill:url(#linear-gradient-3);}</style><linearGradient id="linear-gradient" x1="52.98" y1="0.45" x2="52.98" y2="61.05" gradientUnits="userSpaceOnUse"><stop offset="0" stop-color="#00a0b4"/><stop offset="1" stop-color="#00a0b4"/></linearGradient><clipPath id="clip-path"><path class="cls-1" d="M82.64.45c-8,0-14.89,5.46-20.11,12.81l9.18-6.09h0A14.6,14.6,0,0,1,78.13,4.4c10.28-1.69,20.15,8,20.58,21.81.22,6.26-1.54,12.4-4.8,16.64-4.33,5.7-10.81,7.64-16.47,4.53-5.15-2.83-9.93-8.66-14-13.45l-6.52-7.66,0,0-3.32-4-.58-.68-.08-.1c-2.34-2.7-5.88-6.8-7.37-8.47C39.31,5.92,32.91,0,24.16.48a20.37,20.37,0,0,0-9.94,3.27,26.25,26.25,0,0,0-8,8.14A37.61,37.61,0,0,0,1.07,36.17,35.68,35.68,0,0,0,4.5,47.89c3.76,7.53,10.13,12.42,17,13.07,8.48.82,15.75-4.41,21.29-11.86l-7.29,4.21,0,0a14.89,14.89,0,0,1-7.65,3.77c-10.28,1.69-20.14-8-20.59-21.81C7,29,8.78,22.89,12.05,18.66,16.37,13,22.85,11,28.52,14.12c5.14,2.83,9.92,8.66,14,13.45l4.09,4.81L49,35.25l4,4.68.45.58c2.32,2.67,5.54,6.4,6.94,8C66.65,55.58,73,61.5,81.78,61a20.44,20.44,0,0,0,10-3.27,26.22,26.22,0,0,0,8-8.14,37.46,37.46,0,0,0,5.2-24.28,35.91,35.91,0,0,0-3.42-11.72C97.7,6.08,91.32,1.19,84.46.54,83.9.48,83.35.46,82.8.45Z"/></clipPath><linearGradient id="linear-gradient-3" x1="52.98" y1="61.78" x2="52.98" gradientUnits="userSpaceOnUse"><stop offset="0" stop-color="#007878"/><stop offset="1" stop-color="#00a0b4"/></linearGradient></defs><title>Asset 3</title><g id="Layer_2" data-name="Layer 2"><g id="Objects"><path class="cls-1" d="M82.64.45c-8,0-14.89,5.46-20.11,12.81l9.18-6.09h0A14.6,14.6,0,0,1,78.13,4.4c10.28-1.69,20.15,8,20.58,21.81.22,6.26-1.54,12.4-4.8,16.64-4.33,5.7-10.81,7.64-16.47,4.53-5.15-2.83-9.93-8.66-14-13.45l-6.52-7.66,0,0-3.32-4-.58-.68-.08-.1c-2.34-2.7-5.88-6.8-7.37-8.47C39.31,5.92,32.91,0,24.16.48a20.37,20.37,0,0,0-9.94,3.27,26.25,26.25,0,0,0-8,8.14A37.61,37.61,0,0,0,1.07,36.17,35.68,35.68,0,0,0,4.5,47.89c3.76,7.53,10.13,12.42,17,13.07,8.48.82,15.75-4.41,21.29-11.86l-7.29,4.21,0,0a14.89,14.89,0,0,1-7.65,3.77c-10.28,1.69-20.14-8-20.59-21.81C7,29,8.78,22.89,12.05,18.66,16.37,13,22.85,11,28.52,14.12c5.14,2.83,9.92,8.66,14,13.45l4.09,4.81L49,35.25l4,4.68.45.58c2.32,2.67,5.54,6.4,6.94,8C66.65,55.58,73,61.5,81.78,61a20.44,20.44,0,0,0,10-3.27,26.22,26.22,0,0,0,8-8.14,37.46,37.46,0,0,0,5.2-24.28,35.91,35.91,0,0,0-3.42-11.72C97.7,6.08,91.32,1.19,84.46.54,83.9.48,83.35.46,82.8.45Z"/><g class="cls-2"><rect class="cls-3" width="105.95" height="61.78"/></g></g></g></svg>